<svg width="20" height="20" viewBox="0 0 20 20" fill="none" xmlns="http://www.w3.org/2000/svg">
<path d="M11.061 5.43899C11.647 6.02499 11.647 6.97499 11.061 7.55999C10.475 8.14599 9.52499 8.14599 8.93999 7.55999C8.35399 6.97399 8.35399 6.02399 8.93999 5.43899C9.52499 4.85399 10.475 4.85399 11.061 5.43899" stroke="black" stroke-width="2" stroke-linecap="round" stroke-linejoin="round"/>
<path d="M10 15V8" stroke="black" stroke-width="2" stroke-linecap="round" stroke-linejoin="round"/>
<path d="M6.5 10H5C5 12.761 7.239 15 10 15C12.761 15 15 12.761 15 10H13.5" stroke="black" stroke-width="2" stroke-linecap="round" stroke-linejoin="round"/>
<path d="M10 19C14.9706 19 19 14.9706 19 10C19 5.02944 14.9706 1 10 1C5.02944 1 1 5.02944 1 10C1 14.9706 5.02944 19 10 19Z" stroke="black" stroke-width="2" stroke-linecap="round" stroke-linejoin="round"/>
</svg>
