<svg width="24" height="24" viewBox="0 0 24 24" fill="none" xmlns="http://www.w3.org/2000/svg">
<path d="M12 3V3C15.5899 3 18.5 5.91015 18.5 9.5C18.5 13.0898 15.5899 16 12 16C8.41015 16 5.5 13.0898 5.5 9.5V9.5C5.5 5.91015 8.41015 3 12 3C12 3 12 3 12 3" stroke="black" stroke-width="2" stroke-linecap="round" stroke-linejoin="round"/>
<path d="M7 16H17" stroke="black" stroke-width="2" stroke-linecap="round" stroke-linejoin="round"/>
<path d="M12 7.02389V6.19849" stroke="black" stroke-width="2" stroke-linecap="round" stroke-linejoin="round"/>
<path d="M12 11.9763V12.8017" stroke="black" stroke-width="2" stroke-linecap="round" stroke-linejoin="round"/>
<path d="M10.5688 11.3869C10.7809 11.7489 11.1678 11.9727 11.5873 11.9762H12.4953C13.1333 11.9921 13.6634 11.4879 13.6794 10.8499C13.6931 10.298 13.3147 9.81347 12.7759 9.6932L11.2291 9.30444C10.6078 9.15886 10.2221 8.53712 10.3676 7.91576C10.4911 7.38886 10.9637 7.01821 11.5048 7.02387H12.4128C12.8327 7.02671 13.2201 7.25067 13.4321 7.6132" stroke="black" stroke-width="2" stroke-linecap="round" stroke-linejoin="round"/>
<path d="M18.0009 12H19V12C20.1046 12 21 12.8954 21 14V19C21 20.1046 20.1046 21 19 21H5V21C3.89543 21 3 20.1046 3 19V14V14C3 12.8954 3.89543 12 5 12H5.99912" stroke="black" stroke-width="2" stroke-linecap="round" stroke-linejoin="round"/>
</svg>
