<svg width="16" height="16" viewBox="0 0 16 16" fill="none" xmlns="http://www.w3.org/2000/svg">
<path d="M5.66895 10.332L8.11968 10.0294V10.0294C8.29187 10.0083 8.45206 9.93023 8.57481 9.80764L14.5118 3.87454V3.87454C15.1692 3.21681 15.1692 2.15078 14.5118 1.49305V1.49305C13.8541 0.835651 12.788 0.835651 12.1303 1.49305L6.24856 7.3748V7.3748C6.12944 7.49388 6.05218 7.64841 6.02839 7.81516L5.66895 10.332Z" stroke="#2466F6" stroke-width="1.6" stroke-linecap="round" stroke-linejoin="round"/>
<path d="M7.9051 1.77368H4.11204C2.39331 1.77368 1 3.16699 1 4.88572V11.8878C1 13.6065 2.39331 14.9999 4.11204 14.9999H11.1141C12.8329 14.9999 14.2262 13.6065 14.2262 11.8878V8.09475" stroke="#2466F6" stroke-width="1.6" stroke-linecap="round" stroke-linejoin="round"/>
</svg>
