<svg width="20" height="20" viewBox="0 0 20 20" fill="none" xmlns="http://www.w3.org/2000/svg">
<path d="M1 6V14C1 16.761 3.239 19 6 19H14C16.761 19 19 16.761 19 14V6C19 3.239 16.761 1 14 1H6C3.239 1 1 3.239 1 6Z" stroke="black" stroke-width="2" stroke-linecap="round" stroke-linejoin="round"/>
<path d="M11.5 5.642C11.768 5.34 12.231 5 12.937 5C14.172 5 15 6.117 15 7.158C15 9.333 12.192 11 11.5 11C10.808 11 8 9.333 8 7.158C8 6.117 8.828 5 10.063 5C10.769 5 11.232 5.34 11.5 5.642Z" stroke="black" stroke-width="2" stroke-linecap="round" stroke-linejoin="round"/>
</svg>
