<svg width="22" height="16" viewBox="0 0 22 16" fill="none" xmlns="http://www.w3.org/2000/svg">
<path d="M1 15C1 12.791 2.791 11 5 11H9C11.209 11 13 12.791 13 15" stroke="black" stroke-width="2" stroke-linecap="round" stroke-linejoin="round"/>
<path d="M9.47488 2.02513C10.8417 3.39197 10.8417 5.60804 9.47488 6.97488C8.10804 8.34172 5.89197 8.34172 4.52513 6.97488C3.15829 5.60804 3.15829 3.39197 4.52513 2.02513C5.89197 0.65829 8.10804 0.65829 9.47488 2.02513" stroke="black" stroke-width="2" stroke-linecap="round" stroke-linejoin="round"/>
<path d="M15 10H18C19.657 10 21 11.343 21 13" stroke="black" stroke-width="2" stroke-linecap="round" stroke-linejoin="round"/>
<path d="M18.2678 2.73223C19.2441 3.70854 19.2441 5.29145 18.2678 6.26776C17.2915 7.24407 15.7085 7.24407 14.7322 6.26776C13.7559 5.29145 13.7559 3.70854 14.7322 2.73223C15.7085 1.75592 17.2915 1.75592 18.2678 2.73223" stroke="black" stroke-width="2" stroke-linecap="round" stroke-linejoin="round"/>
</svg>
