<svg width="16" height="16" viewBox="0 0 16 16" fill="none" xmlns="http://www.w3.org/2000/svg">
<path d="M9.79602 13.3754L9.33336 6.04204C9.30936 5.65804 9.61402 5.33337 9.99869 5.33337H13.6667C14.0514 5.33337 14.356 5.65804 14.332 6.04204L13.8694 13.3754C13.8474 13.7267 13.556 14 13.204 14H10.4614C10.1094 14 9.81802 13.7267 9.79602 13.3754Z" stroke="black" stroke-width="1.4" stroke-linecap="round" stroke-linejoin="round"/>
<path d="M5.72184 3.24267L5.8325 3.02133C5.93184 2.82267 5.93184 2.58867 5.8325 2.39C5.7125 2.15133 5.4685 2 5.2005 2H3.77917C3.51184 2 3.26717 2.15133 3.14784 2.39C3.0485 2.58867 3.0485 2.82267 3.14784 3.02133L3.2585 3.24267C3.31384 3.354 3.34317 3.476 3.34317 3.60067V4.25733C3.34317 5.03067 3.08917 5.78333 2.61984 6.398L2.3905 6.69867C1.9205 7.314 1.6665 8.066 1.6665 8.84V12.5887C1.6665 13.368 2.2985 14 3.0785 14H5.90184C6.68184 14 7.31384 13.368 7.31384 12.588V8.84C7.31384 8.06667 7.05984 7.314 6.5905 6.69933L6.3605 6.398C5.89117 5.78267 5.63717 5.03067 5.63717 4.25733V3.60067C5.63717 3.47667 5.66584 3.354 5.72184 3.24267V3.24267Z" stroke="black" stroke-width="1.4" stroke-linecap="round" stroke-linejoin="round"/>
<path d="M3.33984 3.66003H5.63984" stroke="black" stroke-width="1.4" stroke-linecap="round" stroke-linejoin="round"/>
<path d="M7.31334 11.3334H1.67334" stroke="black" stroke-width="1.4" stroke-linecap="round" stroke-linejoin="round"/>
<path d="M7.31334 8.66663H1.67334" stroke="black" stroke-width="1.4" stroke-linecap="round" stroke-linejoin="round"/>
</svg>
