<svg width="16" height="16" viewBox="0 0 16 16" fill="none" xmlns="http://www.w3.org/2000/svg">
<path d="M7.99984 5.972V5.44467C7.99984 4.9 8.3365 4.60467 8.67384 4.378C9.00317 4.156 9.33317 3.86667 9.33317 3.33333C9.33317 2.59667 8.7365 2 7.99984 2C7.26317 2 6.6665 2.59667 6.6665 3.33333" stroke="black" stroke-width="1.5" stroke-linecap="round" stroke-linejoin="round"/>
<path d="M10.634 14H5.366C4.612 14 4 13.388 4 12.634V10.0167C4 9.63937 4.306 9.33337 4.68333 9.33337H11.3173C11.694 9.33337 12 9.63937 12 10.0167V12.634C12 13.388 11.388 14 10.634 14Z" stroke="black" stroke-width="1.5" stroke-linecap="round" stroke-linejoin="round"/>
<path d="M12 10.2787H12.4507C13.3067 10.2787 14 9.58466 14 8.72866C14 8.06132 13.5733 7.46932 12.94 7.25866L10.108 6.31466C8.73933 5.85866 7.26 5.85866 5.89133 6.31466L3.05933 7.25866C2.42667 7.46932 2 8.06132 2 8.73532V8.76799C2 9.60332 2.67733 10.2807 3.51267 10.2807H4" stroke="black" stroke-width="1.4" stroke-linecap="round" stroke-linejoin="round"/>
</svg>
