<svg width="26" height="26" viewBox="0 0 26 26" fill="none" xmlns="http://www.w3.org/2000/svg">
<path d="M14.9083 24.936L22.9083 23.1693C24.131 22.9 25.0003 21.8173 25.0003 20.5653V5.43462C25.0003 4.18395 24.131 3.09995 22.9083 2.83062L14.9083 1.06395C13.2443 0.695954 11.667 1.96262 11.667 3.66795V22.332C11.667 24.0373 13.2443 25.304 14.9083 24.936V24.936Z" stroke="#0090F9" stroke-width="2" stroke-linecap="round" stroke-linejoin="round"/>
<path d="M17.9543 15.6347L19.2877 15.34C19.8983 15.2054 20.333 14.664 20.333 14.0387V11.9614C20.333 11.336 19.8983 10.7947 19.2877 10.66L17.9543 10.3654C17.121 10.1814 16.333 10.8147 16.333 11.6667V14.3334C16.333 15.1854 17.121 15.8187 17.9543 15.6347V15.6347Z" stroke="#0090F9" stroke-width="2" stroke-linecap="round" stroke-linejoin="round"/>
<path d="M12.0293 23.6667H3.66667C2.19333 23.6667 1 22.4733 1 21V13" stroke="#0090F9" stroke-width="2" stroke-linecap="round" stroke-linejoin="round"/>
<path d="M11.6667 3.66797H3.66667C2.19333 3.66797 1 4.8613 1 6.33464V13" stroke="#0090F9" stroke-width="2" stroke-linecap="round" stroke-linejoin="round"/>
</svg>
