<svg width="14" height="14" viewBox="0 0 14 14" fill="none" xmlns="http://www.w3.org/2000/svg">
<path d="M11.2426 1.87868C13.5858 3.05025 13.5858 4.94975 11.2426 6.12132C8.89948 7.29289 5.10049 7.29289 2.75736 6.12132C0.414213 4.94975 0.414213 3.05025 2.75736 1.87868C5.10051 0.707107 8.89949 0.707107 11.2426 1.87868" stroke="black" stroke-width="1.4" stroke-linecap="round" stroke-linejoin="round"/>
<path d="M12.6668 8.00073C11.4595 8.93073 9.38416 9.55206 7.00016 9.55206C4.61616 9.55206 2.54083 8.93073 1.3335 8.00073" stroke="black" stroke-width="1.4" stroke-linecap="round" stroke-linejoin="round"/>
<path d="M12.6668 10.782C11.4595 11.712 9.38416 12.3333 7.00016 12.3333C4.61616 12.3333 2.54083 11.712 1.3335 10.782" stroke="black" stroke-width="1.4" stroke-linecap="round" stroke-linejoin="round"/>
<path d="M4.56543 3.66667C5.0841 3.26733 5.9761 3 7.0001 3C8.0241 3 8.9161 3.26733 9.43476 3.66667" stroke="black" stroke-width="1.4" stroke-linecap="round" stroke-linejoin="round"/>
</svg>
