<svg width="246" height="20" viewBox="0 0 246 20" fill="none" xmlns="http://www.w3.org/2000/svg">
<path fill-rule="evenodd" clip-rule="evenodd" d="M49.6822 10C49.6822 15.6522 45.992 20 40.4137 20C34.8069 20 31.1452 15.6522 31.1452 10C31.1452 4.34783 34.8069 0 40.4137 0C45.992 0 49.6822 4.34783 49.6822 10ZM32.8616 10C32.8616 14.8696 35.7795 18.4928 40.4137 18.4928C44.9907 18.4928 47.9658 14.8696 47.9658 10C47.9658 5.07246 44.9907 1.50725 40.4137 1.50725C35.7795 1.50725 32.8616 5.07246 32.8616 10Z" fill="black"/>
<path d="M68.8963 16.5507C67.2085 18.6667 64.9772 20 61.945 20C56.5383 20 52.276 15.942 52.276 10C52.276 4.05797 56.5383 0 61.945 0C64.9772 0 67.2657 1.36232 68.8963 3.42029L67.5232 4.31884C66.3217 2.63768 64.2335 1.50725 61.945 1.50725C57.4537 1.50725 53.9924 4.95652 53.9924 10C53.9924 14.9855 57.4537 18.4928 61.945 18.4928C64.2335 18.4928 66.3217 17.3623 67.5232 15.6812L68.8963 16.5507Z" fill="black"/>
<path d="M83.5964 19.6522V18.1449H73.1265V10.4928H83.3962V8.98551H73.1265V1.82609H83.5964V0.31884H71.4959V19.6522H83.5964Z" fill="black"/>
<path fill-rule="evenodd" clip-rule="evenodd" d="M94.8231 0.31884L102.633 19.6522H100.745L98.8566 14.8986H88.7586L86.8705 19.6522H84.9825L92.7921 0.31884H94.8231ZM89.3021 13.3913H98.3131L93.7933 2.08696L89.3021 13.3913Z" fill="black"/>
<path d="M119.981 19.6522V0.31884H118.351V16.6957L106.393 0.31884H104.734V19.6522H106.365V3.04348L118.379 19.6522H119.981Z" fill="black"/>
<path d="M4.34245 2.60166V12.406H3.42991V2.60166H0V1.77267H7.77236V2.60166H4.34245Z" fill="black"/>
<path d="M17.7431 1.77267V12.406H16.8306V7.35238H10.1753V12.406H9.27847V1.77267H10.1753V6.5234H16.8306V1.77267H17.7431Z" fill="black"/>
<path d="M26.6388 12.406V11.577H20.8803V7.36833H26.5287V6.53934H20.8803V2.60166H26.6388V1.77267H19.9835V12.406H26.6388Z" fill="black"/>
<path d="M133.642 20C137.504 20 139.85 17.971 141.309 15.6522L138.448 14.1739C137.533 15.7971 135.702 16.9855 133.642 16.9855C129.866 16.9855 127.063 14.058 127.063 10C127.063 5.94203 129.866 3.01449 133.642 3.01449C135.702 3.01449 137.533 4.23189 138.448 5.82609L141.309 4.34783C139.878 2.02899 137.504 0 133.642 0C128.007 0 123.63 4.05797 123.63 10C123.63 15.942 128.007 20 133.642 20Z" fill="black"/>
<path d="M155.029 19.6522V16.6667H146.619V0.31884H143.272V19.6522H155.029Z" fill="black"/>
<path d="M170.408 16.6667V19.6522H157.335V0.31884H170.408V3.30435H160.682V8.31884H170.208V11.3043H160.682V16.6667H170.408Z" fill="black"/>
<path fill-rule="evenodd" clip-rule="evenodd" d="M190.294 19.6522L182.799 0.31884H178.622L171.128 19.6522H174.932L176.334 15.942H185.088L186.489 19.6522H190.294ZM184.144 12.9565H177.278L180.711 3.73913L184.144 12.9565Z" fill="black"/>
<path d="M208.197 0.31884V19.6522H204.965L195.01 5.85507V19.6522H191.663V0.31884H195.096L204.85 13.7391V0.31884H208.197Z" fill="black"/>
<path d="M219.804 20C225.325 20 228.042 16.8116 228.042 12V0.31884H224.667V11.913C224.667 14.9855 222.979 16.9855 219.804 16.9855C216.6 16.9855 214.912 14.9855 214.912 11.913V0.31884H211.536V12.029C211.536 16.7826 214.254 20 219.804 20Z" fill="black"/>
<path fill-rule="evenodd" clip-rule="evenodd" d="M234.729 12.4348V19.6522H231.382V0.31884H239.764C243.769 0.31884 246 3.10145 246 6.37681C246 9.65217 243.74 12.4348 239.764 12.4348H234.729ZM234.729 9.44928H239.306C241.194 9.44928 242.567 8.23188 242.567 6.37681C242.567 4.52174 241.194 3.30435 239.306 3.30435H234.729V9.44928Z" fill="black"/>
</svg>
