<svg width="18" height="18" viewBox="0 0 18 18" fill="none" xmlns="http://www.w3.org/2000/svg">
<path fill-rule="evenodd" clip-rule="evenodd" d="M5.622 2.25H12.3787C14.2402 2.25 15.75 3.759 15.75 5.622V12.3787C15.75 14.2402 14.241 15.75 12.378 15.75H5.622C3.75975 15.75 2.25 14.241 2.25 12.378V5.622C2.25 3.75975 3.759 2.25 5.622 2.25V2.25Z" stroke="black" stroke-width="1.4" stroke-linecap="round" stroke-linejoin="round"/>
<path d="M13.0144 4.15625C12.5494 4.15875 12.1719 4.53625 12.1719 5.00125C12.1719 5.46625 12.5519 5.84375 13.0169 5.84375C13.4819 5.84375 13.8594 5.46625 13.8594 5.00125C13.8619 4.53375 13.4819 4.15625 13.0144 4.15625Z" fill="black"/>
<path d="M10.909 7.09086C11.9634 8.14528 11.9634 9.85482 10.909 10.9092C9.85458 11.9637 8.14504 11.9637 7.09062 10.9092C6.0362 9.85482 6.0362 8.14528 7.09062 7.09086C8.14504 6.03644 9.85458 6.03644 10.909 7.09086" stroke="black" stroke-width="1.4" stroke-linecap="round" stroke-linejoin="round"/>
</svg>
