<svg width="12" height="17" viewBox="0 0 12 17" fill="none" xmlns="http://www.w3.org/2000/svg">
<path d="M6 0C2.68629 0 0 2.74043 0 6.12093C0 9.58887 3.77486 14.7077 5.33657 16.676C5.67943 17.108 6.32057 17.108 6.66343 16.676C8.22514 14.7077 12 9.58887 12 6.12093C12 2.74043 9.31371 0 6 0ZM6 8.30697C4.81629 8.30697 3.85714 7.3285 3.85714 6.12093C3.85714 4.91336 4.81629 3.93488 6 3.93488C7.18371 3.93488 8.14286 4.91336 8.14286 6.12093C8.14286 7.3285 7.18371 8.30697 6 8.30697Z" fill="#8F9CB8"/>
</svg>
