<svg width="14" height="14" viewBox="0 0 14 14" fill="none" xmlns="http://www.w3.org/2000/svg">
<path d="M1 10.0787C1.764 9.73939 2.636 9.73939 3.4 10.0787C4.164 10.4181 5.036 10.4181 5.8 10.0787C6.564 9.73939 7.436 9.73939 8.2 10.0787C8.964 10.4181 9.836 10.4181 10.6 10.0787C11.364 9.73939 12.236 9.73939 13 10.0787" stroke="black" stroke-width="1.4" stroke-linecap="round" stroke-linejoin="round"/>
<path d="M4.3335 4.33337H9.66683" stroke="black" stroke-width="1.4" stroke-linecap="round" stroke-linejoin="round"/>
<path d="M4.3335 7H9.66683" stroke="black" stroke-width="1.4" stroke-linecap="round" stroke-linejoin="round"/>
<path d="M9.6665 8.33333V2C9.6665 1.448 10.1145 1 10.6665 1C11.2185 1 11.6665 1.448 11.6665 2" stroke="black" stroke-width="1.4" stroke-linecap="round" stroke-linejoin="round"/>
<path d="M4.3335 8.33333V2C4.3335 1.448 4.7815 1 5.3335 1C5.8855 1 6.3335 1.448 6.3335 2" stroke="black" stroke-width="1.4" stroke-linecap="round" stroke-linejoin="round"/>
<path d="M1 12.7453C1.764 12.406 2.636 12.406 3.4 12.7453C4.164 13.0847 5.036 13.0847 5.8 12.7453C6.564 12.406 7.436 12.406 8.2 12.7453C8.964 13.0847 9.836 13.0847 10.6 12.7453C11.364 12.406 12.236 12.406 13 12.7453" stroke="black" stroke-width="1.4" stroke-linecap="round" stroke-linejoin="round"/>
</svg>
