<svg width="196" height="166" viewBox="0 0 196 166" fill="none" xmlns="http://www.w3.org/2000/svg">
<path d="M89.1582 1.88226L12.936 35.8285C5.06334 39.3311 0 47.1439 0 55.775V107.06C0 192.498 70.1136 232.391 98 238C125.886 232.391 196 192.498 196 107.06V55.775C196 47.1548 190.937 39.3311 183.064 35.8285L106.842 1.88226C101.212 -0.627421 94.7878 -0.627421 89.1582 1.88226ZM79.4127 158.421L49.2504 128.196C45.0038 123.94 45.0038 117.022 49.2504 112.767C53.4971 108.511 60.4007 108.511 64.6473 112.767L87.1111 135.277L142.481 79.7916C146.728 75.5361 153.631 75.5361 157.878 79.7916C162.125 84.0472 162.125 90.9652 157.878 95.2207L94.8096 158.421C90.5629 162.677 83.6593 162.677 79.4127 158.421Z" fill="#21A300"/>
</svg>
