<svg width="30" height="30" viewBox="0 0 30 30" fill="none" xmlns="http://www.w3.org/2000/svg">
<path d="M9.82843 12.1716C11.3905 13.7337 11.3905 16.2663 9.82843 17.8284C8.26633 19.3905 5.73367 19.3905 4.17157 17.8284C2.60948 16.2663 2.60948 13.7337 4.17157 12.1716C5.73367 10.6095 8.26633 10.6095 9.82843 12.1716" stroke="#8F9CB8" stroke-width="2"/>
<path d="M25.8284 4.17157C27.3905 5.73367 27.3905 8.26633 25.8284 9.82843C24.2663 11.3905 21.7337 11.3905 20.1716 9.82843C18.6095 8.26633 18.6095 5.73367 20.1716 4.17157C21.7337 2.60948 24.2663 2.60948 25.8284 4.17157" stroke="#8F9CB8" stroke-width="2"/>
<path d="M25.8284 20.1716C27.3905 21.7337 27.3905 24.2663 25.8284 25.8284C24.2663 27.3905 21.7337 27.3905 20.1716 25.8284C18.6095 24.2663 18.6095 21.7337 20.1716 20.1716C21.7337 18.6095 24.2663 18.6095 25.8284 20.1716" stroke="#8F9CB8" stroke-width="2"/>
<path d="M11 13L19 9" stroke="#8F9CB8" stroke-width="2"/>
<path d="M11 17L19 21" stroke="#8F9CB8" stroke-width="2"/>
</svg>
