<svg width="24" height="26" viewBox="0 0 24 26" fill="none" xmlns="http://www.w3.org/2000/svg">
<path d="M9 7.66667C9 3.98533 11.9853 1 15.6667 1C19.348 1 22.3333 3.98533 22.3333 7.66667V25" stroke="#0090F9" stroke-width="2" stroke-linecap="round" stroke-linejoin="round"/>
<path d="M12.2211 13.9973H5.77843C4.33843 13.9973 3.3211 12.5866 3.7771 11.22C4.48377 9.09729 6.4691 7.66663 8.70643 7.66663H9.2931C11.5291 7.66663 13.5158 9.09729 14.2224 11.22C14.6784 12.5866 13.6611 13.9973 12.2211 13.9973V13.9973Z" stroke="#0090F9" stroke-width="2" stroke-linecap="round" stroke-linejoin="round"/>
<path d="M9 23.6666V25" stroke="#0090F9" stroke-width="2" stroke-linecap="round" stroke-linejoin="round"/>
<path d="M9 19.6667V18.3334" stroke="#0090F9" stroke-width="2" stroke-linecap="round" stroke-linejoin="round"/>
<path d="M16.9999 23.1999L16.2666 22.0933" stroke="#0090F9" stroke-width="2" stroke-linecap="round" stroke-linejoin="round"/>
<path d="M13.3203 17.6666L14.0536 18.7733" stroke="#0090F9" stroke-width="2" stroke-linecap="round" stroke-linejoin="round"/>
<path d="M4.68011 17.6666L3.94678 18.7733" stroke="#0090F9" stroke-width="2" stroke-linecap="round" stroke-linejoin="round"/>
<path d="M1.73333 22.0933L1 23.1999" stroke="#0090F9" stroke-width="2" stroke-linecap="round" stroke-linejoin="round"/>
</svg>
