<svg width="30" height="24" viewBox="0 0 30 24" fill="none" xmlns="http://www.w3.org/2000/svg">
<path d="M25.6665 12.0894H4.33317C2.85984 12.0894 1.6665 13.2827 1.6665 14.756V18.6667C1.6665 19.4027 2.26384 20 2.99984 20H26.9998C27.7358 20 28.3332 19.4027 28.3332 18.6667V14.756C28.3332 13.2827 27.1398 12.0894 25.6665 12.0894Z" stroke="#0090F9" stroke-width="2" stroke-linecap="round" stroke-linejoin="round"/>
<path d="M3.6665 12.1733V12.0893C3.6665 9.83067 5.49717 8 7.75584 8H10.8665C12.7812 8 14.3332 9.552 14.3332 11.4667V12.0893" stroke="#0090F9" stroke-width="2" stroke-linecap="round" stroke-linejoin="round"/>
<path d="M14.333 12.0893C14.333 9.83067 16.1637 8 18.4223 8H22.245C24.5037 8 26.3343 9.83067 26.3343 12.0893V12.1733" stroke="#0090F9" stroke-width="2" stroke-linecap="round" stroke-linejoin="round"/>
<path d="M4.33301 9.85337V5.33337C4.33301 3.12404 6.12367 1.33337 8.33301 1.33337H21.6663C23.8757 1.33337 25.6663 3.12404 25.6663 5.33337V9.85337" stroke="#0090F9" stroke-width="2" stroke-linecap="round" stroke-linejoin="round"/>
<path d="M27 20V22.6667" stroke="#0090F9" stroke-width="2" stroke-linecap="round" stroke-linejoin="round"/>
<path d="M3 20V22.6667" stroke="#0090F9" stroke-width="2" stroke-linecap="round" stroke-linejoin="round"/>
</svg>
