<svg width="16" height="16" viewBox="0 0 16 16" fill="none" xmlns="http://www.w3.org/2000/svg">
<path d="M8.00033 15.6667C7.81599 15.6667 7.66699 15.5177 7.66699 15.3334V0.6667C7.66699 0.482366 7.81599 0.333366 8.00033 0.333366C8.18466 0.333366 8.33366 0.482366 8.33366 0.6667V15.3334C8.33366 15.5177 8.18466 15.6667 8.00033 15.6667Z" fill="#FFB300"/>
<path d="M15.333 8.3333H0.666341C0.482008 8.3333 0.333008 8.1843 0.333008 7.99997C0.333008 7.81563 0.482008 7.66663 0.666341 7.66663H15.333C15.5173 7.66663 15.6663 7.81563 15.6663 7.99997C15.6663 8.1843 15.5173 8.3333 15.333 8.3333Z" fill="#FFB300"/>
<path d="M10.2665 15.3076C10.1258 15.3076 9.9955 15.2179 9.9495 15.0772L5.41683 1.12856C5.35983 0.953894 5.45583 0.76556 5.63116 0.70856C5.80516 0.652227 5.99416 0.74756 6.05116 0.922894L10.5835 14.8712C10.6405 15.0459 10.5445 15.2342 10.3692 15.2912C10.3352 15.3022 10.3005 15.3076 10.2665 15.3076Z" fill="#FFB300"/>
<path d="M1.02582 10.5996C0.885154 10.5996 0.754821 10.51 0.708821 10.3693C0.651821 10.1946 0.747821 10.0063 0.923154 9.94929L14.8715 5.41662C15.0455 5.35929 15.2345 5.45562 15.2915 5.63095C15.3485 5.80562 15.2525 5.99395 15.0772 6.05095L1.12882 10.5833C1.09449 10.5943 1.06015 10.5996 1.02582 10.5996Z" fill="#FFB300"/>
<path d="M12.3112 14.2665C12.2079 14.2665 12.1066 14.2188 12.0412 14.1291L3.42023 2.26313C3.3119 2.11413 3.3449 1.9058 3.4939 1.7978C3.6429 1.6898 3.85156 1.72213 3.95923 1.87147L12.5802 13.7371C12.6886 13.8861 12.6556 14.0945 12.5066 14.2025C12.4476 14.2455 12.3792 14.2665 12.3112 14.2665Z" fill="#FFB300"/>
<path d="M2.06718 12.644C1.96385 12.644 1.86252 12.5963 1.79718 12.5066C1.68885 12.3576 1.72185 12.1493 1.87085 12.0413L13.7368 3.41997C13.8858 3.31164 14.0942 3.3443 14.2022 3.49364C14.3105 3.64264 14.2775 3.85097 14.1285 3.95897L2.26285 12.58C2.20352 12.623 2.13518 12.644 2.06718 12.644Z" fill="#FFB300"/>
<path d="M13.9324 12.644C13.8644 12.644 13.7961 12.6233 13.7368 12.5803L1.87075 3.95897C1.72209 3.85097 1.68875 3.64264 1.79709 3.49364C1.90509 3.3443 2.11309 3.31164 2.26242 3.41997L14.1284 12.041C14.2771 12.149 14.3104 12.3573 14.2021 12.5063C14.1371 12.5963 14.0354 12.644 13.9324 12.644Z" fill="#FFB300"/>
<path d="M3.68849 14.2663C3.62049 14.2663 3.55216 14.2456 3.49282 14.2026C3.34416 14.0946 3.31082 13.8863 3.41916 13.7373L12.0405 1.87093C12.1485 1.7216 12.3565 1.68893 12.5058 1.79726C12.6545 1.90526 12.6878 2.1136 12.5795 2.2626L3.95849 14.1289C3.89349 14.2186 3.79182 14.2663 3.68849 14.2663Z" fill="#FFB300"/>
<path d="M14.9743 10.5998C14.94 10.5998 14.9057 10.5945 14.8713 10.5835L0.922997 6.05079C0.747997 5.99379 0.651997 5.80579 0.708664 5.63079C0.765664 5.45579 0.953997 5.35979 1.12866 5.41646L15.0773 9.94912C15.2523 10.0061 15.3483 10.1941 15.2917 10.3691C15.2453 10.5101 15.115 10.5998 14.9743 10.5998Z" fill="#FFB300"/>
<path d="M5.734 15.3075C5.69967 15.3075 5.66534 15.3022 5.631 15.2912C5.456 15.2342 5.36 15.0462 5.41667 14.8712L9.94967 0.922856C10.0067 0.747856 10.195 0.652189 10.3697 0.708522C10.5447 0.765522 10.6407 0.953522 10.584 1.12852L6.051 15.0769C6.00534 15.2179 5.87467 15.3075 5.734 15.3075Z" fill="#FFB300"/>
<path d="M9.05075 14.9681C8.88975 14.9681 8.74775 14.8511 8.72209 14.6867L6.62042 1.4174C6.59142 1.23573 6.71542 1.06473 6.89742 1.03606C7.07908 1.0054 7.25008 1.13106 7.27875 1.31306L9.38042 14.5827C9.40942 14.7644 9.28542 14.9354 9.10342 14.9641C9.08575 14.9667 9.06808 14.9681 9.05075 14.9681Z" fill="#FFB300"/>
<path d="M1.3651 9.38401C1.2041 9.38401 1.0621 9.26701 1.03643 9.10268C1.00743 8.92101 1.13143 8.75001 1.31343 8.72134L14.5831 6.61968C14.7651 6.58868 14.9361 6.71468 14.9644 6.89668C14.9934 7.07834 14.8694 7.24934 14.6874 7.27801L1.41743 9.38001C1.39977 9.38268 1.3821 9.38401 1.3651 9.38401Z" fill="#FFB300"/>
<path d="M11.0504 14.3186C10.929 14.3186 10.812 14.2523 10.753 14.1366L4.65369 2.16593C4.57002 2.00193 4.63502 1.80093 4.79935 1.71759C4.96335 1.63326 5.16369 1.69926 5.24735 1.86326L11.347 13.8339C11.4307 13.9979 11.3657 14.1989 11.2014 14.2823C11.153 14.3069 11.1014 14.3186 11.0504 14.3186Z" fill="#FFB300"/>
<path d="M2.0145 11.383C1.89316 11.383 1.77616 11.3167 1.71716 11.201C1.6335 11.037 1.6985 10.836 1.86283 10.7527L13.8335 4.65336C13.9975 4.56936 14.1982 4.63469 14.2818 4.79902C14.3655 4.96336 14.3005 5.16402 14.1362 5.24736L2.1655 11.3467C2.11716 11.3714 2.06516 11.383 2.0145 11.383Z" fill="#FFB300"/>
<path d="M12.7504 13.0834C12.6651 13.0834 12.5797 13.0507 12.5147 12.9857L3.01474 3.48569C2.88441 3.35535 2.88441 3.14469 3.01474 3.01435C3.14508 2.88402 3.35574 2.88402 3.48608 3.01435L12.9861 12.5144C13.1164 12.6447 13.1164 12.8554 12.9861 12.9857C12.9211 13.0507 12.8357 13.0834 12.7504 13.0834Z" fill="#FFB300"/>
<path d="M3.25041 13.0834C3.16508 13.0834 3.07974 13.0507 3.01474 12.9857C2.88441 12.8554 2.88441 12.6447 3.01474 12.5144L12.5147 3.01435C12.6451 2.88402 12.8557 2.88402 12.9861 3.01435C13.1164 3.14469 13.1164 3.35535 12.9861 3.48569L3.48608 12.9857C3.42108 13.0507 3.33574 13.0834 3.25041 13.0834Z" fill="#FFB300"/>
<path d="M13.9854 11.3831C13.9347 11.3831 13.8827 11.3714 13.8344 11.3468L1.86374 5.24709C1.69974 5.16375 1.63441 4.96275 1.71808 4.79875C1.80108 4.63475 2.00174 4.56942 2.16641 4.65309L14.1371 10.7531C14.3011 10.8364 14.3664 11.0374 14.2827 11.2014C14.2241 11.3168 14.1067 11.3831 13.9854 11.3831Z" fill="#FFB300"/>
<path d="M4.95029 14.3187C4.89962 14.3187 4.84762 14.307 4.79929 14.2823C4.63529 14.199 4.56996 13.998 4.65362 13.834L10.7533 1.86333C10.8363 1.69933 11.037 1.63367 11.2016 1.71767C11.3656 1.801 11.431 2.002 11.3473 2.166L5.24729 14.1367C5.18862 14.2523 5.07162 14.3187 4.95029 14.3187Z" fill="#FFB300"/>
<path d="M14.6354 9.38401C14.6181 9.38401 14.6008 9.38268 14.5831 9.37968L1.31343 7.27834C1.13143 7.24968 1.00743 7.07868 1.03643 6.89701C1.0651 6.71534 1.23677 6.58934 1.41777 6.62001L14.6874 8.72168C14.8694 8.75035 14.9934 8.92134 14.9644 9.10301C14.9384 9.26701 14.7968 9.38401 14.6354 9.38401Z" fill="#FFB300"/>
<path d="M6.94975 14.968C6.93242 14.968 6.91508 14.9667 6.89742 14.9637C6.71542 14.935 6.59142 14.764 6.62042 14.5823L8.72208 1.31268C8.75075 1.13101 8.92275 1.00535 9.10342 1.03568C9.28542 1.06435 9.40942 1.23535 9.38042 1.41701L7.27875 14.6867C7.25275 14.851 7.11075 14.968 6.94975 14.968Z" fill="#FFB300"/>
<path d="M7.99968 1.33337C4.31767 1.33337 1.33301 4.31803 1.33301 8.00003C1.33301 11.682 4.31767 14.6667 7.99968 14.6667C11.6817 14.6667 14.6663 11.682 14.6663 8.00003C14.6663 4.31803 11.6817 1.33337 7.99968 1.33337Z" fill="url(#paint0_linear)"/>
<defs>
<linearGradient id="paint0_linear" x1="1.76134" y1="1.7617" x2="12.704" y2="12.7044" gradientUnits="userSpaceOnUse">
<stop stop-color="#FED100"/>
<stop offset="1" stop-color="#E36001"/>
</linearGradient>
</defs>
</svg>
