<svg width="18" height="18" viewBox="0 0 18 18" fill="none" xmlns="http://www.w3.org/2000/svg">
<path d="M5.625 2.25H12.378C14.2402 2.25 15.75 3.75975 15.75 5.622V12.3787C15.75 14.2402 14.2402 15.75 12.378 15.75H5.622C3.75975 15.75 2.25 14.2402 2.25 12.378V5.625C2.25 3.76125 3.76125 2.25 5.625 2.25V2.25Z" stroke="black" stroke-width="1.4" stroke-linecap="round" stroke-linejoin="round"/>
<path d="M7.83748 13.3126C10.9875 13.3126 12.7875 11.0626 12.7875 7.9126L13.6875 6.5626H12.3375C11.9707 6.00685 11.4397 5.6626 10.5375 5.6626C9.21223 5.6626 8.33023 6.61285 8.28748 7.9126C7.17448 7.64185 6.14098 6.69235 5.58748 5.6626C4.42048 7.29235 4.53448 9.5431 6.03748 11.0626L4.49976 12.0001C4.84991 12.4376 6.00767 13.3126 7.83748 13.3126Z" stroke="black" stroke-width="1.4" stroke-linecap="round" stroke-linejoin="round"/>
</svg>
