<svg width="12" height="10" viewBox="0 0 12 10" fill="none" xmlns="http://www.w3.org/2000/svg">
<path d="M0 0.999999C0 0.813871 0 0.720807 0.0244718 0.645491C0.0739307 0.493272 0.193273 0.37393 0.345491 0.324471C0.420808 0.299999 0.513872 0.299999 0.7 0.299999H11.3C11.4861 0.299999 11.5792 0.299999 11.6545 0.324471C11.8067 0.37393 11.9261 0.493272 11.9755 0.645491C12 0.720807 12 0.813871 12 0.999999C12 1.18613 12 1.27919 11.9755 1.35451C11.9261 1.50673 11.8067 1.62607 11.6545 1.67553C11.5792 1.7 11.4861 1.7 11.3 1.7H0.7C0.513872 1.7 0.420808 1.7 0.345491 1.67553C0.193273 1.62607 0.0739307 1.50673 0.0244718 1.35451C0 1.27919 0 1.18613 0 0.999999Z" fill="black"/>
<path d="M0 5C0 4.81387 0 4.72081 0.0244718 4.64549C0.0739307 4.49327 0.193273 4.37393 0.345491 4.32447C0.420808 4.3 0.513872 4.3 0.7 4.3H11.3C11.4861 4.3 11.5792 4.3 11.6545 4.32447C11.8067 4.37393 11.9261 4.49327 11.9755 4.64549C12 4.72081 12 4.81387 12 5C12 5.18613 12 5.27919 11.9755 5.35451C11.9261 5.50673 11.8067 5.62607 11.6545 5.67553C11.5792 5.7 11.4861 5.7 11.3 5.7H0.7C0.513872 5.7 0.420808 5.7 0.345491 5.67553C0.193273 5.62607 0.0739307 5.50673 0.0244718 5.35451C0 5.27919 0 5.18613 0 5Z" fill="black"/>
<path d="M0.0244718 8.64549C0 8.72081 0 8.81387 0 9C0 9.18613 0 9.27919 0.0244718 9.35451C0.0739307 9.50673 0.193273 9.62607 0.345491 9.67553C0.420808 9.7 0.513872 9.7 0.7 9.7H11.3C11.4861 9.7 11.5792 9.7 11.6545 9.67553C11.8067 9.62607 11.9261 9.50673 11.9755 9.35451C12 9.27919 12 9.18613 12 9C12 8.81387 12 8.72081 11.9755 8.64549C11.9261 8.49327 11.8067 8.37393 11.6545 8.32447C11.5792 8.3 11.4861 8.3 11.3 8.3H0.7C0.513872 8.3 0.420808 8.3 0.345491 8.32447C0.193273 8.37393 0.0739307 8.49327 0.0244718 8.64549Z" fill="black"/>
</svg>
