<svg class="plus" width="12" height="12" viewBox="0 0 12 12" fill="none" xmlns="http://www.w3.org/2000/svg">
<path d="M6 3C5.67 3 5.4 3.27 5.4 3.6V5.4H3.6C3.27 5.4 3 5.67 3 6C3 6.33 3.27 6.6 3.6 6.6H5.4V8.4C5.4 8.73 5.67 9 6 9C6.33 9 6.6 8.73 6.6 8.4V6.6H8.4C8.73 6.6 9 6.33 9 6C9 5.67 8.73 5.4 8.4 5.4H6.6V3.6C6.6 3.27 6.33 3 6 3ZM6 0C2.688 0 0 2.688 0 6C0 9.312 2.688 12 6 12C9.312 12 12 9.312 12 6C12 2.688 9.312 0 6 0ZM6 10.8C3.354 10.8 1.2 8.646 1.2 6C1.2 3.354 3.354 1.2 6 1.2C8.646 1.2 10.8 3.354 10.8 6C10.8 8.646 8.646 10.8 6 10.8Z" fill="#2466F6"/>
</svg>
