<svg width="14" height="14" viewBox="0 0 14 14" fill="none" xmlns="http://www.w3.org/2000/svg">
<path d="M2.33333 13H11.5193C12.256 13 12.8527 12.4033 12.8527 11.6667V2.33333C12.8527 1.59667 12.256 1 11.5193 1H2.33333C1.59667 1 1 1.59667 1 2.33333V11.6667C1 12.4033 1.59667 13 2.33333 13Z" stroke="black" stroke-width="1.4" stroke-linecap="round" stroke-linejoin="round"/>
<path d="M12.8533 4.33337H1" stroke="black" stroke-width="1.4" stroke-linecap="round" stroke-linejoin="round"/>
<path d="M4.6907 9.99997C4.3567 9.42131 4.5267 8.68331 5.08003 8.30931L5.0807 8.30864C5.5247 8.00798 6.10937 8.01797 6.5427 8.33331L7.45737 8.99931C7.8907 9.31464 8.47537 9.32464 8.91937 9.02397L8.92003 9.02331C9.47337 8.64931 9.6427 7.91131 9.30937 7.33264" stroke="black" stroke-width="1.4" stroke-linecap="round" stroke-linejoin="round"/>
<path d="M8.88578 6.78105C9.92718 7.82245 9.92718 9.51089 8.88578 10.5523C7.84438 11.5937 6.15594 11.5937 5.11455 10.5523C4.07315 9.51088 4.07315 7.82244 5.11455 6.78105C6.15595 5.73965 7.84439 5.73965 8.88578 6.78105" stroke="black" stroke-width="1.4" stroke-linecap="round" stroke-linejoin="round"/>
<path d="M9.6665 2.66663H10.9998" stroke="black" stroke-width="1.4" stroke-linecap="round" stroke-linejoin="round"/>
</svg>
