<svg width="12" height="18" viewBox="0 0 12 18" fill="none" xmlns="http://www.w3.org/2000/svg">
<path d="M6 0.542969C2.68629 0.542969 0 3.25659 0 6.60403C0 10.0381 3.77486 15.1068 5.33657 17.0559C5.67943 17.4836 6.32057 17.4836 6.66343 17.0559C8.22514 15.1068 12 10.0381 12 6.60403C12 3.25659 9.31371 0.542969 6 0.542969ZM6 8.7687C4.81629 8.7687 3.85714 7.79979 3.85714 6.60403C3.85714 5.40827 4.81629 4.43937 6 4.43937C7.18371 4.43937 8.14286 5.40827 8.14286 6.60403C8.14286 7.79979 7.18371 8.7687 6 8.7687Z" fill="white"/>
</svg>
